<svg width="1512" height="982" viewBox="0 0 1512 982" fill="none" xmlns="http://www.w3.org/2000/svg">
<g clip-path="url(#clip0_171_2)">
<rect width="1512" height="982" fill="#005AC1"/>
<g clip-path="url(#clip1_171_2)">
<path d="M-572.715 16.1902L-405.784 -48.6268C-238.853 -113.444 93.5607 -244.526 217.763 -158.707C339.431 -78.3195 245.645 218.97 367.675 299.72C490.429 384.09 825.016 255.181 1042.28 240.696C1260.99 227.66 1364.55 331.223 1446.75 451.804C1527.86 574.196 1592.68 711.435 1561.18 952.96C1526.78 1188.69 1397.14 1522.55 1421.4 1701.07C1446.03 1882.85 1628.89 1906.39 1825.52 1912.54C2024.31 1917.97 2240.85 1902.76 2403.8 1949.84C2562.76 1992.93 2664.52 2094.68 2650.03 2311.94C2637.72 2531.38 2508.81 2865.97 2610.2 2967.36C2712.68 3069.83 3048.35 2942.01 3168.93 3024.21C3290.96 3104.96 3196.81 3401.89 3280.1 3521.38C3365.92 3643.41 3620.48 3593.8 3722.95 3694.1C3824.7 3798.03 3776.18 4053.68 3876.49 4156.15C3979.32 4256.82 4232.44 4205.76 4319.34 4328.88C4401.9 4447.65 4308.48 4745.3 4488.45 4768.11C4668.77 4794.18 5119.6 4549.76 5344.1 4426.65L5568.61 4303.53L4525.74 5346.4L4474.69 5295.34C4423.63 5244.28 4322.96 5143.62 4217.95 5038.61C4116.92 4937.58 4015.17 4835.83 3913.78 4734.44C3810.22 4630.87 3707.38 4528.04 3605.99 4426.65C3503.15 4323.81 3399.59 4220.25 3298.2 4118.86C3196.45 4017.1 3095.42 3916.08 2990.41 3811.07C2889.75 3710.4 2787.63 3608.29 2686.24 3506.9C2583.04 3403.7 2479.84 3300.5 2378.45 3199.11C2276.34 3096.99 2175.67 2996.33 2070.66 2891.31C1969.63 2790.29 1867.88 2688.54 1766.49 2587.15C1662.93 2483.58 1560.09 2380.74 1458.7 2279.36C1356.23 2176.88 1252.3 2072.95 1150.91 1971.56C1049.52 1870.17 948.132 1768.79 846.742 1667.4C742.818 1563.47 640.341 1460.99 538.952 1359.6C436.113 1256.77 332.551 1153.2 231.161 1051.81C129.409 950.063 28.3816 849.035 -76.6293 744.024C-177.295 643.358 -279.409 541.244 -380.799 439.855C-483.999 336.654 -587.199 233.454 -637.894 182.759L-688.589 132.064L-572.715 16.1902Z" fill="#004BA2"/>
</g>
<g clip-path="url(#clip2_171_2)">
<path d="M-339.778 581.592L-254.643 548.535C-169.509 515.479 0.0209498 448.627 63.3639 492.395C125.414 533.392 77.5837 685.009 139.819 726.191C202.423 769.22 373.061 703.476 483.865 696.089C595.407 689.441 648.224 742.258 690.145 803.754C731.512 866.173 764.568 936.164 748.502 1059.34C730.958 1179.56 664.845 1349.83 677.218 1440.88C689.776 1533.58 783.036 1545.59 883.313 1548.73C984.699 1551.5 1095.13 1543.74 1178.24 1567.75C1259.31 1589.72 1311.2 1641.62 1303.81 1752.42C1297.54 1864.33 1231.79 2034.97 1283.5 2086.68C1335.76 2138.94 1506.95 2073.75 1568.45 2115.67C1630.69 2156.85 1582.67 2308.29 1625.15 2369.23C1668.91 2431.46 1798.74 2406.16 1851 2457.32C1902.89 2510.32 1878.15 2640.7 1929.3 2692.96C1981.75 2744.3 2110.84 2718.26 2155.16 2781.05C2197.26 2841.62 2149.62 2993.42 2241.4 3005.06C2333.37 3018.36 2563.29 2893.7 2677.78 2830.91L2792.28 2768.12L2260.42 3299.98L2234.38 3273.94C2208.34 3247.9 2157 3196.56 2103.45 3143.01C2051.93 3091.49 2000.03 3039.59 1948.32 2987.88C1895.51 2935.07 1843.06 2882.62 1791.35 2830.91C1738.9 2778.46 1686.09 2725.65 1634.38 2673.94C1582.49 2622.05 1530.96 2570.52 1477.41 2516.97C1426.07 2465.63 1373.99 2413.55 1322.28 2361.84C1269.65 2309.21 1217.02 2256.58 1165.31 2204.87C1113.23 2152.79 1061.89 2101.45 1008.34 2047.9C956.813 1996.37 904.92 1944.48 853.211 1892.77C800.395 1839.96 747.948 1787.51 696.239 1735.8C643.977 1683.54 590.975 1630.54 539.267 1578.83C487.558 1527.12 435.85 1475.41 384.141 1423.7C331.14 1370.7 278.878 1318.44 227.169 1266.73C174.722 1214.28 121.905 1161.47 70.1968 1109.76C18.3036 1057.86 -33.2202 1006.34 -86.7755 952.785C-138.115 901.446 -190.192 849.368 -241.901 797.66C-294.533 745.028 -347.165 692.396 -373.019 666.542L-398.873 640.687L-339.778 581.592Z" fill="#205A9C"/>
</g>
<rect width="1512" height="982" fill="url(#paint0_linear_171_2)"/>
</g>
<defs>
<linearGradient id="paint0_linear_171_2" x1="756" y1="-4.12984e-07" x2="747" y2="1197.5" gradientUnits="userSpaceOnUse">
<stop stop-color="#D9D9D9" stop-opacity="0"/>
<stop offset="1" stop-color="#CAF1C0"/>
</linearGradient>
<clipPath id="clip0_171_2">
<rect width="1512" height="982" fill="white"/>
</clipPath>
<clipPath id="clip1_171_2">
<rect width="3321.96" height="1223.6" fill="white" transform="translate(-80.7819 -1099) rotate(45)"/>
</clipPath>
<clipPath id="clip2_171_2">
<rect width="984.283" height="624.034" fill="white" transform="translate(163.259 265) rotate(45)"/>
</clipPath>
</defs>
</svg>
