<svg width="300" height="222" viewBox="0 0 300 222" fill="none" xmlns="http://www.w3.org/2000/svg">
<g clip-path="url(#clip0_175_45)">
<path d="M258.424 24.6124C232.464 3.69783 191.398 0.152563 189.64 0.0250301C186.914 -0.204518 184.316 1.32582 183.195 3.85086C183.093 4.00389 182.201 6.06984 181.208 9.28354C198.378 12.1912 219.472 18.0319 238.553 29.892C241.61 31.7794 242.553 35.8093 240.667 38.8699C239.419 40.8849 237.305 41.9816 235.114 41.9816C233.942 41.9816 232.745 41.65 231.675 40.9869C198.862 20.608 157.897 19.5878 150 19.5878C142.103 19.5878 101.112 20.608 68.3254 40.9869C65.2683 42.8998 61.2432 41.9561 59.358 38.8954C57.4474 35.8093 58.3899 31.8049 61.447 29.892C80.5282 18.0574 101.622 12.1912 118.792 9.30904C117.799 6.06985 116.907 4.0294 116.831 3.85086C115.684 1.32582 113.111 -0.255526 110.36 0.0250301C108.602 0.152563 67.5357 3.69783 41.2194 24.8929C27.4881 37.6202 0 111.994 0 176.294C0 177.441 0.305706 178.538 0.866172 179.533C19.82 212.894 71.5608 221.617 83.356 222C83.4069 222 83.4834 222 83.5598 222C85.6488 222 87.6104 221.005 88.8332 219.321L100.756 202.896C68.5802 194.581 52.1484 180.451 51.2058 179.609C48.5054 177.237 48.2507 173.105 50.6454 170.402C53.0146 167.698 57.1416 167.443 59.8421 169.815C60.2242 170.172 90.4891 195.882 150 195.882C209.613 195.882 239.878 170.07 240.183 169.815C242.884 167.469 246.985 167.698 249.38 170.427C251.749 173.131 251.495 177.237 248.794 179.609C247.852 180.451 231.42 194.581 199.244 202.896L211.167 219.321C212.39 221.005 214.351 222 216.44 222C216.517 222 216.593 222 216.644 222C228.439 221.617 280.18 212.894 299.134 179.533C299.694 178.538 300 177.441 300 176.294C300 111.994 272.512 37.6202 258.424 24.6124ZM107.609 150.176C94.9983 150.176 84.7826 138.494 84.7826 124.058C84.7826 109.622 94.9983 97.9407 107.609 97.9407C120.219 97.9407 130.435 109.622 130.435 124.058C130.435 138.494 120.219 150.176 107.609 150.176ZM192.391 150.176C179.781 150.176 169.565 138.494 169.565 124.058C169.565 109.622 179.781 97.9407 192.391 97.9407C205.002 97.9407 215.217 109.622 215.217 124.058C215.217 138.494 205.002 150.176 192.391 150.176Z" fill="white"/>
</g>
<defs>
<clipPath id="clip0_175_45">
<rect width="300" height="222" fill="white"/>
</clipPath>
</defs>
</svg>
