<svg width="300" height="300" viewBox="0 0 300 300" fill="none" xmlns="http://www.w3.org/2000/svg">
<g clip-path="url(#clip0_175_42)">
<path d="M156.474 299.5C74.0309 299.5 6.94885 232.443 6.94885 150C6.94885 67.5566 74.0309 0.5 156.474 0.5C193.824 0.5 229.574 14.3379 257.173 39.4746L262.201 44.0703L212.892 93.3789L208.322 89.4687C193.849 77.0781 175.441 70.248 156.474 70.248C112.498 70.248 76.6969 106.023 76.6969 150C76.6969 193.977 112.498 229.752 156.474 229.752C188.187 229.752 213.248 213.553 225.054 185.953H149.974V118.643L296.554 118.846L297.646 124C305.289 160.283 299.17 213.654 268.193 251.842C242.548 283.453 204.97 299.5 156.474 299.5Z" fill="white"/>
</g>
<defs>
<clipPath id="clip0_175_42">
<rect width="300" height="300" fill="white"/>
</clipPath>
</defs>
</svg>
